<svg width="28" height="22" viewBox="0 0 28 22" fill="none" xmlns="http://www.w3.org/2000/svg">
<path d="M4.03375 13.2762L13.3975 20.533C13.6819 20.7535 13.8242 20.8637 13.9892 20.8673C13.9964 20.8675 14.0036 20.8675 14.0108 20.8673C14.1758 20.8637 14.3181 20.7535 14.6025 20.533L23.9662 13.2762C27.2013 10.769 27.5743 6.02067 24.7703 3.03913C21.9399 0.0294366 17.0085 0.599675 14.9396 4.17589L14.705 4.58139C14.3913 5.12354 13.6087 5.12354 13.295 4.58139L13.0604 4.17589C10.9915 0.599674 6.06009 0.0294366 3.22966 3.03913C0.425703 6.02067 0.798667 10.769 4.03375 13.2762Z" fill="#CCD2E3" stroke="#CCD2E3" stroke-width="2"/>
</svg>
