<svg width="45" height="21" viewBox="0 0 45 21" fill="none" xmlns="http://www.w3.org/2000/svg">
<path d="M12.173 18.657C12.5695 19.0414 12.5793 19.6745 12.1949 20.0711C11.8105 20.4676 11.1774 20.4774 10.7809 20.093L12.173 18.657ZM2 10.1875L1.30394 10.9055L0.56334 10.1875L1.30394 9.46951L2 10.1875ZM10.7809 0.282016C11.1774 -0.102406 11.8105 -0.0925886 12.1949 0.303944C12.5793 0.700476 12.5695 1.33356 12.173 1.71799L10.7809 0.282016ZM44 9.18751C44.5523 9.18751 45 9.63522 45 10.1875C45 10.7398 44.5523 11.1875 44 11.1875L44 9.18751ZM10.7809 20.093L1.30394 10.9055L2.69606 9.46951L12.173 18.657L10.7809 20.093ZM1.30394 9.46951L10.7809 0.282016L12.173 1.71799L2.69606 10.9055L1.30394 9.46951ZM2 9.1875L44 9.18751L44 11.1875L2 11.1875L2 9.1875Z" fill="white"/>
</svg>
