<svg width="45" height="21" viewBox="0 0 45 21" fill="none" xmlns="http://www.w3.org/2000/svg">
<path d="M12.173 1.71799C12.5695 1.33356 12.5793 0.700474 12.1949 0.303942C11.8105 -0.0925906 11.1774 -0.102408 10.7809 0.282015L12.173 1.71799ZM2 10.1875L1.30394 9.46951L0.563339 10.1875L1.30394 10.9055L2 10.1875ZM10.7809 20.093C11.1774 20.4774 11.8105 20.4676 12.1949 20.0711C12.5793 19.6745 12.5695 19.0414 12.173 18.657L10.7809 20.093ZM44 11.1875C44.5523 11.1875 45 10.7398 45 10.1875C45 9.63522 44.5523 9.1875 44 9.1875V11.1875ZM10.7809 0.282015L1.30394 9.46951L2.69606 10.9055L12.173 1.71799L10.7809 0.282015ZM1.30394 10.9055L10.7809 20.093L12.173 18.657L2.69606 9.46951L1.30394 10.9055ZM2 11.1875H44V9.1875H2V11.1875Z" fill="#CCD2E3"/>
</svg>
