<svg width="26" height="30" viewBox="0 0 26 30" fill="none" xmlns="http://www.w3.org/2000/svg">
<path fill-rule="evenodd" clip-rule="evenodd" d="M9.40864 25.8213C8.10675 25.9241 6.84182 25.321 6.0987 24.1875L5.13509 22.7094L2.80873 27.7047C2.77729 27.7678 2.78578 27.8373 2.82893 27.8929C2.87184 27.9484 2.93472 27.9736 3.0038 27.9617L5.77466 27.4782L7.18852 29.9089C7.22271 29.9693 7.28307 30.0026 7.35467 29.9998C7.42352 29.9968 7.48089 29.9576 7.51233 29.8942L9.40864 25.8213ZM15.8276 25.8261L17.7234 29.8943C17.7521 29.9576 17.8095 29.9969 17.8811 29.9998C17.9499 30.0026 18.0103 29.9691 18.0477 29.909L19.459 27.4782L22.2299 27.9617C22.2987 27.9737 22.3619 27.9484 22.4048 27.8929C22.4477 27.8374 22.4564 27.7678 22.4247 27.7047L20.0699 22.6465L19.0632 24.1877C18.3345 25.2992 17.1042 25.9018 15.8276 25.8261ZM11.5627 13.1142L15.3372 9.30256C15.7817 8.85115 16.5131 8.84977 16.9606 9.29774C17.4108 9.74455 17.4136 10.4715 16.9663 10.922C15.4375 12.467 13.9173 14.0211 12.3802 15.5584C11.93 16.0078 11.2014 16.0078 10.7511 15.5584L8.20149 13.0083C7.75123 12.5588 7.75123 11.8297 8.20149 11.3801C8.649 10.9305 9.37742 10.9305 9.82768 11.3801L11.5627 13.1142ZM14.17 0.537088L15.7704 1.73317C16.2065 2.06042 16.6652 2.22795 17.21 2.25778L19.2036 2.36908C20.3969 2.43517 21.3661 3.24874 21.639 4.41221L22.0952 6.35599C22.2214 6.88795 22.4654 7.31184 22.864 7.68567L24.318 9.05135C25.1899 9.8695 25.4109 11.1154 24.8716 12.1821L23.9711 13.9638C23.7244 14.4512 23.6383 14.9334 23.7044 15.4754L23.9394 17.4573C24.0826 18.6437 23.449 19.7398 22.3502 20.2104L20.5142 20.996C20.0121 21.2113 19.6394 21.5261 19.3383 21.9826L18.2484 23.6533C17.5946 24.6534 16.4042 25.0865 15.2598 24.7406L13.3495 24.1639C12.8277 24.0056 12.3373 24.0056 11.8149 24.1639L9.90192 24.7413C8.76042 25.0871 7.56986 24.6539 6.91604 23.654L5.82319 21.9833C5.52462 21.5268 5.14915 21.2119 4.64702 20.9967L2.81158 20.2111C1.71326 19.7402 1.08193 18.6442 1.22235 17.458L1.4601 15.4761C1.52321 14.9336 1.44013 14.4516 1.19343 13.9645L0.292919 12.1827C-0.246612 11.1163 -0.0281351 9.87019 0.843694 9.05204L2.3005 7.68635C2.69936 7.31251 2.9431 6.88865 3.06654 6.35668L3.52276 4.4129C3.79516 3.24984 4.76478 2.43586 5.9581 2.36977L7.9517 2.25847C8.49651 2.22864 8.95549 2.06111 9.39453 1.73385L10.9922 0.537775C11.9499 -0.179144 13.2148 -0.179142 14.17 0.537088Z" fill="#01B8D9"/>
</svg>
