<?xml version="1.0" encoding="utf-8"?>
<!-- Generator: Adobe Illustrator 21.0.0, SVG Export Plug-In . SVG Version: 6.00 Build 0)  -->
<svg version="1.1" id="Icons" xmlns="http://www.w3.org/2000/svg" xmlns:xlink="http://www.w3.org/1999/xlink" x="0px" y="0px"
	 viewBox="0 0 28 28" style="enable-background:new 0 0 28 28;" xml:space="preserve" width="28" height="28">
<style type="text/css">
	.st0{fill:#cdcdcd;}
</style>
<g>
	<path class="st0" d="M14,0c-0.6,0-1,0.4-1,1v5c0,0.6,0.4,1,1,1s1-0.4,1-1V1C15,0.4,14.6,0,14,0z"/>
	<path class="st0" d="M5.5,4.1c-0.4-0.4-1-0.4-1.4,0s-0.4,1,0,1.4L7.6,9c0.2,0.2,0.5,0.3,0.7,0.3S8.8,9.2,9,9c0.4-0.4,0.4-1,0-1.4
		L5.5,4.1z"/>
	<path class="st0" d="M7,14c0-0.6-0.4-1-1-1H1c-0.6,0-1,0.4-1,1s0.4,1,1,1h5C6.6,15,7,14.6,7,14z"/>
	<path class="st0" d="M7.6,18.9l-3.5,3.5c-0.4,0.4-0.4,1,0,1.4c0.2,0.2,0.5,0.3,0.7,0.3s0.5-0.1,0.7-0.3L9,20.3c0.4-0.4,0.4-1,0-1.4
		S8,18.6,7.6,18.9z"/>
	<path class="st0" d="M14,21c-0.6,0-1,0.4-1,1v5c0,0.6,0.4,1,1,1s1-0.4,1-1v-5C15,21.4,14.6,21,14,21z"/>
	<path class="st0" d="M20.4,18.9c-0.4-0.4-1-0.4-1.4,0s-0.4,1,0,1.4l3.5,3.5c0.2,0.2,0.5,0.3,0.7,0.3s0.5-0.1,0.7-0.3
		c0.4-0.4,0.4-1,0-1.4L20.4,18.9z"/>
	<path class="st0" d="M27,13h-5c-0.6,0-1,0.4-1,1s0.4,1,1,1h5c0.6,0,1-0.4,1-1S27.6,13,27,13z"/>
	<path class="st0" d="M19.7,9.3c0.3,0,0.5-0.1,0.7-0.3l3.5-3.5c0.4-0.4,0.4-1,0-1.4s-1-0.4-1.4,0L19,7.6c-0.4,0.4-0.4,1,0,1.4
		C19.1,9.2,19.4,9.3,19.7,9.3z"/>
</g>
</svg>
