<svg width="291" height="84" viewBox="0 0 291 84" fill="none" xmlns="http://www.w3.org/2000/svg">
<path d="M289.997 42.624H40.6102C37.6374 42.624 38.781 44.8144 38.4282 47.7233L38.2969 48.8066H284.043C284.845 48.8062 285.637 48.6445 286.374 48.3308C287.112 48.0171 287.778 47.558 288.334 46.981C288.889 46.404 289.323 45.7211 289.609 44.9728C289.895 44.2244 290.027 43.4257 289.997 42.6252V42.624Z" fill="#01B8D9"/>
<path d="M21.1249 41.1034C13.7847 41.1034 11.9532 40.4467 8.69389 37.9072C5.06048 35.0777 3.0266 31.5057 1.50765 26.3462C0.610248 23.2988 -1.342 15.7479 1.43308 9.47673C2.22828 7.58802 3.41891 5.8917 4.92481 4.50179C6.43072 3.11188 8.21681 2.06048 10.1631 1.4189C13.6091 0.407881 17.1899 -0.0679433 20.7803 0.00780783C22.7545 -0.0173099 24.7264 0.147265 26.6691 0.499175C30.7879 1.5268 31.5645 2.05584 32.0274 2.57794C32.4465 3.05151 31.683 5.06425 31.0697 6.17475C30.8744 6.52992 30.6908 6.91487 30.5239 7.25229C30.4564 7.38844 30.4055 7.46536 30.3676 7.54942C30.2594 7.7607 30.1363 7.96366 29.9994 8.15756C29.9902 8.17251 29.9799 8.18691 29.9686 8.20034C29.9383 8.2069 29.9073 8.21007 29.8763 8.20901C29.6503 8.16621 29.4276 8.10714 29.2097 8.03327C28.4033 7.81589 27.578 7.6765 26.745 7.6159L25.9718 7.53266C24.3987 7.36702 22.818 7.28444 21.2362 7.28524C19.4181 7.28074 17.6023 7.41031 15.8032 7.67255C14.0485 7.8144 12.4008 8.57371 11.1529 9.81549C9.41373 11.6612 9.10357 15.196 8.95084 18.3641C8.74811 23.7648 10.175 29.1015 13.0459 33.6803C13.7563 34.715 14.3387 35.5371 14.8845 36.1788C15.0123 36.3326 15.1724 36.4563 15.3535 36.5412C15.5346 36.6261 15.7323 36.6697 15.9323 36.6695C16.3064 36.6699 16.6653 36.5224 16.9305 36.2585C17.1957 35.9947 17.3454 35.636 17.347 35.2619V31.6998C17.347 30.1217 17.0286 26.4647 17.0286 26.4647C17.1719 25.7449 18.8364 24.9825 20.649 24.9825H21.5866C22.838 24.9825 24.7359 25.1928 25.2284 26.1861C25.2284 26.1861 24.9099 30.0163 24.9099 31.6998V35.2989C24.9084 35.4903 24.9467 35.6797 25.0223 35.8556C25.0979 36.0315 25.2092 36.1897 25.349 36.3204C25.6134 36.5667 25.9609 36.7047 26.3222 36.7065C26.6856 36.7059 27.0339 36.5613 27.2907 36.3042C28.5386 34.9595 29.5552 33.4173 30.299 31.7403C30.4103 31.5035 30.5358 31.2667 30.6672 31.0015C32.3939 27.7599 33.2563 24.1279 33.1712 20.4562C33.238 17.4017 32.9783 14.349 32.3968 11.3497C32.0902 9.79998 33.8081 9.23502 35.7508 8.74489C36.2574 8.66438 36.7452 8.49302 37.1906 8.23849C37.3925 8.04183 37.6515 7.91406 37.9305 7.87372C38.5307 7.87372 38.81 9.31228 39.0137 10.36C39.1798 10.8913 39.4159 11.3981 39.7157 11.8671C38.7708 12.0772 37.8025 12.163 36.8353 12.1226C35.3614 12.1475 34.8677 12.1806 34.657 12.4694C34.618 12.5226 34.592 12.5843 34.5811 12.6492C34.5702 12.7142 34.5746 12.7805 34.5941 12.8435C37.9647 23.9402 36.3701 29.8306 33.6779 34.4312C31.3006 38.4885 27.5038 41.1034 21.1249 41.1034Z" fill="#01B8D9"/>
<path d="M18.5851 83.2942C16.2166 83.1623 13.9266 82.399 11.9529 81.083C9.97929 79.7671 8.39402 77.9467 7.3617 75.811C4.66595 70.2206 5.68293 59.9263 11.4864 53.1035C17.1514 46.4452 24.6278 43.5138 33.4609 42.5489C33.6409 41.2845 33.7308 40.2228 33.8468 38.6422C34.1277 34.1496 34.1234 29.6437 33.8338 25.1516C33.6657 21.9622 34.0954 19.9612 33.2418 15.8602C32.8805 13.8855 32.4062 11.9332 31.8212 10.0129C31.8212 10.0129 31.646 9.43183 31.5512 9.06601C31.3891 8.44801 31.1439 8.05336 31.769 7.57861C33.0303 6.54723 34.4416 5.71451 35.9542 5.10906C36.9218 4.75844 37.9376 4.55878 38.966 4.51711C39.1086 4.5023 39.2526 4.52494 39.3839 4.58243C39.8478 5.38861 40.2142 6.24664 40.4755 7.13927C40.8178 8.36785 41.0746 9.61882 41.2439 10.8829C41.3398 11.8419 41.444 12.8079 41.5458 13.7693C41.8939 17.0285 41.8523 20.1078 41.9565 22.7514C42.6294 34.8355 41.6857 46.9557 39.1507 58.79C37.7988 65.4055 35.0687 71.6619 31.1381 77.1521C29.7692 79.1879 27.8884 80.8274 25.6848 81.9056C23.4812 82.9838 21.0325 83.4627 18.5851 83.2942ZM23.883 51.2519C19.557 53.6706 17.954 55.3956 16.0953 58.7484C13.673 63.1205 13.2019 65.1582 13.5038 69.0284C13.5793 70.1088 13.987 71.1396 14.6709 71.9794C15.3548 72.8193 16.2816 73.4271 17.3243 73.72C19.0352 73.9252 20.7603 73.4756 22.1534 72.4616C22.9893 71.8388 25.7052 70.0583 28.7312 63.4568C30.957 58.5969 31.7751 54.3405 32.7885 48.8164C29.6863 49.0211 26.6573 49.8499 23.883 51.253V51.2519Z" fill="#01B8D9"/>
<path d="M248.449 35.8074C245.648 35.7306 242.989 34.5563 241.045 32.5378C239.102 30.5193 238.029 27.8179 238.058 25.0158C237.996 23.6978 238.198 22.3805 238.652 21.1416C239.105 19.9026 239.803 18.7672 240.702 17.8014C241.716 16.8581 242.909 16.1265 244.21 15.6498C245.511 15.1731 246.894 14.9606 248.279 15.0249C249.735 15.0002 251.179 15.3009 252.505 15.9053C253.83 16.5098 255.004 17.4028 255.941 18.5188C257.675 20.5593 258.646 23.1391 258.687 25.8165C258.752 28.4818 257.761 31.0646 255.93 33.0026C254.938 33.9452 253.766 34.6788 252.485 35.1605C251.204 35.6423 249.839 35.8626 248.472 35.8074H248.449ZM248.331 20.0611C245.94 20.0611 244.424 21.9553 244.385 24.9968C244.42 28.6207 245.924 30.7718 248.395 30.7718C248.868 30.7789 249.338 30.6903 249.777 30.5111C250.215 30.3318 250.613 30.0658 250.946 29.7289C251.889 28.6478 252.39 27.2509 252.349 25.8165C252.285 22.2103 250.786 20.06 248.339 20.06L248.331 20.0611Z" fill="#01B8D9"/>
<path d="M79.9375 27.6748L79.046 27.747L74.7651 27.9424C74.4522 27.9561 74.1409 27.8899 73.8605 27.7505L73.5278 27.5852L73.8558 34.5476L67.645 34.403L66.9453 15.919C68.0263 15.8325 69.1117 15.8131 70.1951 15.8617C71.1578 15.8829 72.1189 15.9535 73.0744 16.0727L73.548 22.7484L74.1399 22.7201L79.1123 22.531C79.2987 22.5235 79.4751 22.445 79.6058 22.3119C79.7365 22.1789 79.8115 22.0013 79.8156 21.8148V21.7055L79.8049 15.6831C81.0461 15.5033 82.3013 15.439 83.5544 15.4912C84.4846 15.5197 85.4101 15.6355 86.3187 15.8369L86.0512 34.514L79.9233 34.8268L79.9375 27.6748Z" fill="#01B8D9"/>
<path d="M288.936 34.9412L284.408 15.8583C284.408 15.5623 282.946 15.3848 281.107 15.3611C279.269 15.3374 277.855 15.5327 277.852 15.8346L275.163 24.3647L274.604 25.8607C274.577 25.9327 274.528 25.9948 274.465 26.0382C274.401 26.0816 274.326 26.1044 274.249 26.1035C274.176 26.1036 274.105 26.0829 274.044 26.0434C273.983 26.0039 273.935 25.9473 273.906 25.881L273.263 24.419L269.82 15.8051C269.82 15.5091 268.358 15.2685 266.519 15.2484C264.681 15.2283 263.247 15.4414 263.243 15.7386L259.184 34.8857C259.176 34.9025 259.172 34.9205 259.172 34.9389C259.172 35.3095 260.603 35.6777 262.442 35.6777C264.28 35.6777 265.771 35.3828 265.771 35.0135L267.478 26.6602L267.952 24.9058H268.348L269.201 26.9701L271.675 33.2295C271.682 33.4485 272.694 33.6 273.999 33.5538C275.304 33.5076 276.36 33.2994 276.352 33.0804L278.756 26.8753L279.703 24.7162H280.1L280.527 26.6446L282.317 34.9106C282.317 35.2799 283.785 35.5627 285.624 35.584C287.462 35.6053 288.939 35.3903 288.946 35.0221C288.95 34.9949 288.946 34.9668 288.936 34.9412Z" fill="#01B8D9"/>
<path d="M145.312 15.9061C145.339 15.6113 143.882 15.2597 142.05 15.0893C140.219 14.9188 138.799 15.0101 138.772 15.306L138.74 15.8743L138.654 17.1397H138.233L137.102 16.4472C136.041 15.7756 134.822 15.3966 133.568 15.3494C132.548 15.3228 131.535 15.5052 130.588 15.8847C129.642 16.2642 128.783 16.8331 128.065 17.5565C126.067 19.8068 125.028 22.7488 125.169 25.7548C125.253 28.0966 126.077 30.3514 127.521 32.1963C128.364 33.3085 129.458 34.2066 130.712 34.8179C131.967 35.4292 133.348 35.7367 134.743 35.7151H134.765C136.049 35.6766 137.299 35.2888 138.38 34.5931L139.117 33.9629L139.887 33.0513L139.932 33.7618L140.092 34.2C140.202 34.6465 140.47 35.0375 140.847 35.3006C141.225 35.5638 141.684 35.6811 142.141 35.6301C143.319 35.7893 144.518 35.6875 145.652 35.3318L145.312 15.9061ZM139.005 28.7065C137.993 29.6529 136.675 30.2058 135.29 30.2656C133.055 30.2656 131.715 28.4209 131.705 25.3369C131.645 24.0141 132.097 22.7192 132.967 21.7216C133.259 21.4244 133.608 21.1891 133.994 21.0302C134.379 20.8713 134.792 20.7918 135.209 20.7966H135.222C136.399 20.7679 137.554 21.1197 138.515 21.7996L138.809 22.3916L139.046 28.1926L139.005 28.7065Z" fill="#01B8D9"/>
<path d="M168.597 15.2891L153.25 15.4902C152.79 15.4965 152.35 15.6773 152.018 15.9961C151.686 16.3148 151.488 16.7478 151.463 17.2071L151.053 24.9216V24.9805C150.852 26.2548 150.393 27.4746 149.705 28.5658C149.017 29.657 148.114 30.5965 147.051 31.3273C146.801 31.4753 147.109 32.4474 147.784 33.591C148.459 34.7347 149.143 35.5542 149.392 35.4074C153.489 34.98 157.051 33.9865 157.589 24.8089L157.789 21.3011L158.52 21.1681L161.933 20.8687L161.961 21.7317L162.219 34.8235C162.219 35.1929 163.668 35.4831 165.507 35.4831C167.346 35.4831 168.822 35.1871 168.822 34.8177L168.597 15.2891Z" fill="#01B8D9"/>
<path d="M63.6986 30.9159C63.0238 29.7722 62.3194 29.0516 62.0696 29.1984C60.4834 29.9954 58.7634 30.4917 56.9965 30.6627C55.532 30.7355 54.0794 30.368 52.8256 29.6077L52.2811 29.0452C51.9246 28.6774 51.6983 28.2034 51.637 27.6948L51.5553 27.0162L53.3643 27.7393C54.3509 27.8923 55.3515 27.9364 56.3477 27.87C58.7318 27.7825 60.9839 26.7535 62.6106 25.0085C63.1623 24.3292 63.5695 23.5441 63.8073 22.702C64.045 21.8598 64.1083 20.978 63.9934 20.1104C63.7412 17.436 61.2823 14.4974 55.1852 15.0124H55.1508C53.6313 15.1033 52.1448 15.4949 50.7774 16.1639C49.41 16.8329 48.1888 17.7665 47.1843 18.9103C46.3738 19.87 45.7649 20.9828 45.3939 22.1828C45.0229 23.3829 44.8973 24.6456 45.0249 25.8953C45.1069 27.4286 45.5289 28.9242 46.2606 30.2742C46.9922 31.6242 48.0151 32.7947 49.255 33.7005C51.6786 35.293 54.5817 35.9901 57.4641 35.6717H57.4938C59.963 35.4523 62.3376 34.6165 64.3995 33.2403C64.6481 33.0947 64.3734 32.0595 63.6986 30.9159ZM55.5782 19.2011H55.5841C55.9035 19.1647 56.2269 19.1926 56.5355 19.2826C56.844 19.3727 57.1317 19.5236 57.3813 19.726C57.5976 19.9138 57.7743 20.1422 57.9013 20.3989C58.0283 20.6556 58.1031 20.9351 58.1213 21.2209C58.1509 21.486 58.1265 21.7546 58.0496 22.01C57.9727 22.2654 57.8448 22.502 57.6737 22.7066C56.9444 23.604 55.3534 24.1621 52.8103 24.4119L51.6997 24.3657C51.9199 21.6687 53.3833 19.3905 55.5795 19.2023L55.5782 19.2011Z" fill="#01B8D9"/>
<path d="M122.831 25.374C122.553 16.4237 118.234 15.3877 114.985 15.3877C112.111 15.3877 108.784 17.7174 108.751 17.7411L108.233 18.1365C107.598 17.2228 106.734 16.4913 105.729 16.0138C104.723 15.5362 103.611 15.3293 102.501 15.4137C100.899 15.5161 99.3534 16.0416 98.021 16.9364L96.7743 17.7376L96.5636 17.8775L96.0711 15.679C96.0581 15.4565 94.7771 15.3438 93.1907 15.442C91.6043 15.5403 90.4168 15.7663 90.4298 15.9889L90.9212 34.9314C90.9342 35.2948 92.4827 35.5236 94.2906 35.4609C96.0984 35.3981 97.5345 35.0347 97.5214 34.6712L97.4267 22.5102L97.5759 22.0368C97.9294 21.5674 98.3826 21.1818 98.9027 20.9083C99.4228 20.6349 99.9971 20.4798 100.584 20.4546C101.838 20.4546 103.347 21.3094 103.426 25.3856L103.481 34.7834C103.494 35.1539 105.001 35.3757 106.851 35.3117C108.7 35.2478 110.25 34.9008 110.237 34.529L110.118 22.483L110.286 21.9859C110.645 21.5376 111.091 21.1677 111.599 20.9003C112.107 20.6328 112.664 20.4735 113.237 20.4314C116.046 20.4314 116.092 23.8832 116.111 25.3619L116.193 34.8522C116.193 35.2369 117.743 35.4701 119.656 35.4701C121.569 35.4701 123.112 35.2336 123.112 34.8452L122.831 25.374Z" fill="#01B8D9"/>
<path d="M73.8592 34.5455C73.8592 34.8912 72.4906 35.1173 70.7704 35.1173C69.0501 35.1173 67.6484 34.7472 67.6484 34.4074C67.6484 34.0676 69.0513 33.8721 70.7704 33.8721C72.4894 33.8721 73.8592 34.1998 73.8592 34.5455Z" fill="#01B8D9"/>
<path d="M86.049 34.515C86.0632 34.8548 84.6981 35.2076 83.004 35.2798C81.3098 35.352 79.9353 35.1616 79.9258 34.8266C79.9164 34.4916 81.2625 34.116 82.9566 34.0462C84.6508 33.9763 86.0336 34.1741 86.049 34.515Z" fill="#01B8D9"/>
<path d="M97.3033 4.54004H122.935C122.935 5.34523 122.776 6.14254 122.468 6.88644C122.16 7.63034 121.708 8.30627 121.139 8.87562C120.57 9.44498 119.894 9.89662 119.15 10.2048C118.406 10.5129 117.609 10.6715 116.803 10.6715H91.1719C91.1719 9.04532 91.8179 7.48577 92.9677 6.3359C94.1176 5.18603 95.6772 4.54004 97.3033 4.54004Z" fill="#01B8D9"/>
<path d="M212.124 4.54004H235.565C235.565 6.1662 234.919 7.72575 233.769 8.87562C232.619 10.0255 231.06 10.6715 229.434 10.6715H205.992C205.992 9.04532 206.638 7.48577 207.788 6.3359C208.938 5.18603 210.497 4.54004 212.124 4.54004Z" fill="#01B8D9"/>
<path d="M200.881 28.8391C200.874 28.8408 200.867 28.8434 200.861 28.8472C198.242 29.94 195.971 29.9128 192.756 29.5577C191.544 29.4357 190.372 29.0581 189.317 28.4506C188.262 27.8432 187.348 27.0195 186.634 26.0331C185.336 24.0452 184.587 21.7499 184.46 19.3794C184.004 14.8557 185.82 9.15787 191.494 8.9353C197.24 8.70799 199.647 9.50934 200.834 9.90358C201.045 9.97698 201.598 8.93987 202.107 7.46236C202.616 5.98484 202.879 4.7737 202.669 4.7003C199.408 3.12215 196.351 2.75391 191.675 2.75391C186.795 2.76338 183.069 3.99335 180.602 6.40852C177.891 9.06283 176.252 12.9721 176.601 18.6407C177.379 31.267 186.3 35.8616 193.611 35.7148C194.892 35.6977 196.171 35.5864 197.436 35.3812C198.933 35.1235 200.365 34.5722 201.649 33.7591C201.77 32.8477 201.734 31.9222 201.541 31.0231C201.373 29.6237 201.08 28.7953 200.881 28.8391Z" fill="#01B8D9"/>
<path d="M235.765 25.374C235.486 16.4237 231.167 15.3877 227.919 15.3877C225.044 15.3877 221.717 17.7174 221.684 17.7411L221.167 18.1365C220.531 17.2228 219.668 16.4913 218.662 16.0138C217.657 15.5362 216.544 15.3293 215.434 15.4137C213.833 15.5161 212.287 16.0416 210.955 16.9364L209.708 17.7376L209.497 17.8775L209.005 15.679C208.99 15.4565 207.711 15.3438 206.124 15.442C204.538 15.5403 203.35 15.7663 203.363 15.9889L203.855 34.9314C203.868 35.2948 205.416 35.5236 207.224 35.4609C209.032 35.3981 210.468 35.0347 210.455 34.6712L210.36 22.5102L210.509 22.0368C210.863 21.5674 211.316 21.1818 211.836 20.9083C212.356 20.6349 212.931 20.4798 213.518 20.4546C214.771 20.4546 216.281 21.3094 216.359 25.3856L216.415 34.7834C216.428 35.1539 217.935 35.3757 219.784 35.3117C221.633 35.2478 223.183 34.9008 223.17 34.529L223.052 22.483L223.22 21.9859C223.578 21.5376 224.025 21.1677 224.533 20.9003C225.04 20.6328 225.598 20.4735 226.17 20.4314C228.98 20.4314 229.025 23.8832 229.045 25.3619L229.126 34.8522C229.126 35.2369 230.676 35.4701 232.589 35.4701C234.502 35.4701 236.045 35.2336 236.045 34.8452L235.765 25.374Z" fill="#01B8D9"/>
</svg>
