<svg width="474" height="356" viewBox="0 0 474 356" fill="none" xmlns="http://www.w3.org/2000/svg">
<path d="M437.5 0H36.5C16.4 0 0 16.4 0 36.5V318.9C0 339 16.4 355.4 36.5 355.4H437.5C457.6 355.4 474 339 474 318.9V36.5C474 16.4 457.6 0 437.5 0ZM432.2 27L239.5 191.8L46.8 27H432.2ZM447 318.9C447 324.1 442.7 328.4 437.5 328.4H36.5C31.3 328.4 27 324.1 27 318.9V45.6L230.7 219.8C230.8 219.9 231 220 231.1 220.1C231.2 220.2 231.4 220.3 231.5 220.4C231.8 220.6 232 220.8 232.3 220.9C232.4 221 232.5 221 232.6 221.1C233 221.3 233.4 221.5 233.8 221.7C233.9 221.7 234 221.8 234.1 221.8C234.4 221.9 234.7 222.1 235.1 222.2C235.2 222.2 235.4 222.3 235.5 222.3C235.8 222.4 236.1 222.5 236.4 222.5C236.5 222.5 236.7 222.6 236.8 222.6C237.1 222.7 237.5 222.7 237.8 222.8C237.9 222.8 238 222.8 238.1 222.8C238.5 222.8 239 222.9 239.4 222.9C239.8 222.9 240.3 222.9 240.7 222.8C240.8 222.8 240.9 222.8 241 222.8C241.3 222.8 241.7 222.7 242 222.6C242.1 222.6 242.3 222.5 242.4 222.5C242.7 222.4 243 222.3 243.3 222.3C243.4 222.3 243.6 222.2 243.7 222.2C244 222.1 244.3 222 244.7 221.8C244.8 221.8 244.9 221.7 245 221.7C245.4 221.5 245.8 221.3 246.2 221.1C246.3 221 246.4 221 246.5 220.9C246.8 220.7 247 220.6 247.3 220.4C247.4 220.3 247.6 220.2 247.7 220.1C247.8 220 248 219.9 248.1 219.8L447 49.9V318.9Z" fill="#576072"/>
</svg>
