<svg width="400" height="400" viewBox="0 0 400 400" fill="none" xmlns="http://www.w3.org/2000/svg">
<path d="M366.667 200C366.667 178.113 362.355 156.441 353.98 136.218C345.603 115.999 333.328 97.6233 317.852 82.149C302.375 66.6703 284.002 54.3942 263.78 46.0202C243.56 37.642 221.887 33.333 200 33.333V66.6663C217.51 66.6663 234.848 70.1168 251.025 76.8145C267.202 83.5162 281.9 93.3387 294.282 105.721C306.662 118.099 316.483 132.8 323.183 148.974C329.885 165.153 333.333 182.491 333.333 200H366.667Z" fill="#576072"/>
<path d="M33.3333 166.667V83.3337C33.3333 74.1295 40.7953 66.667 49.9999 66.667H133.333C142.538 66.667 150 74.1295 150 83.3337V150C150 159.204 142.538 166.667 133.333 166.667H99.9999C99.9999 240.304 159.695 300 233.333 300V266.667C233.333 257.464 240.795 250 250 250H316.667C325.872 250 333.333 257.464 333.333 266.667V350C333.333 359.204 325.872 366.667 316.667 366.667H233.333C122.876 366.667 33.3333 277.124 33.3333 166.667Z" fill="#576072"/>
<path d="M292.388 161.731C297.413 173.865 300 186.87 300 200H270C270 190.808 268.19 181.705 264.672 173.213C261.153 164.718 255.998 157.003 249.497 150.504C242.997 144.002 235.282 138.847 226.788 135.327C218.295 131.811 209.192 130.001 200 130.001V100C213.132 100 226.135 102.588 238.268 107.613C250.4 112.638 261.425 120.003 270.71 129.289C279.997 138.574 287.363 149.597 292.388 161.731Z" fill="#576072"/>
</svg>
