<svg width="16" height="11" viewBox="0 0 16 11" fill="none" xmlns="http://www.w3.org/2000/svg">
<path d="M1.71811 9.91903C1.33376 10.3156 0.700671 10.3256 0.30407 9.94121C-0.0925313 9.55686 -0.102462 8.92377 0.28189 8.52717L1.71811 9.91903ZM8 2L7.28189 1.30407L8 0.563074L8.71811 1.30407L8 2ZM15.7181 8.52717C16.1025 8.92377 16.0925 9.55686 15.6959 9.94121C15.2993 10.3256 14.6662 10.3156 14.2819 9.91903L15.7181 8.52717ZM0.28189 8.52717L7.28189 1.30407L8.71811 2.69593L1.71811 9.91903L0.28189 8.52717ZM8.71811 1.30407L15.7181 8.52717L14.2819 9.91903L7.28189 2.69593L8.71811 1.30407Z" fill="#CCD2E3"/>
</svg>
