<svg width="195" height="15" viewBox="0 0 195 15" fill="none" xmlns="http://www.w3.org/2000/svg">
<path d="M3.77221 0H0V14.8983H4.00316V0H3.77221Z" fill="#863399"/>
<path d="M38.3896 2.92373C38.8002 2.92373 47.0118 2.92373 47.0118 2.92373C48.0896 2.92373 48.3975 3.12712 48.3975 3.86441V5.36441C48.3975 6.10169 48.0896 6.30508 47.0118 6.30508C47.0118 6.30508 38.8002 6.30508 38.3896 6.30508C38.3896 5.94915 38.3896 3.30508 38.3896 2.92373ZM48.5258 0H34.6431H34.4121V14.8983H38.3896C38.3896 14.8983 38.3896 9.66102 38.3896 9.25424C38.8258 9.25424 48.5515 9.25424 48.5515 9.25424C51.0663 9.25424 52.1954 8.31356 52.1954 6.22881V3C52.1697 0.88983 51.0919 0 48.5258 0Z" fill="#863399"/>
<path d="M60.3299 0H60.0989H56.2754V14.8983H72.9809V11.7458C72.9809 11.7458 60.7405 11.7458 60.3042 11.7458C60.3299 11.3136 60.3299 0 60.3299 0Z" fill="#863399"/>
<path d="M87.7362 8.64407C87.0947 8.64407 82.4243 8.64407 81.8085 8.64407C82.1164 8.08475 84.4002 3.88983 84.7082 3.30508C85.0418 3.88983 87.4283 8.08475 87.7362 8.64407ZM86.6071 0H83.0659L74.1357 14.8983H78.2159C78.2159 14.8983 79.9352 11.9237 80.0378 11.7203C80.2944 11.7203 89.1732 11.7203 89.4299 11.7203C89.5582 11.9237 91.2518 14.8983 91.2518 14.8983H95.7939L86.7354 0H86.6071Z" fill="#863399"/>
<path d="M113.115 0C113.115 0 113.115 8.54237 113.115 9.38136C112.422 8.84746 101.285 0 101.285 0H98.5391V14.8983H102.234C102.234 14.8983 102.234 6.22881 102.234 5.38983C102.927 5.92373 114.038 14.8983 114.038 14.8983H116.784V0H116.553H113.115Z" fill="#863399"/>
<path d="M120.659 0V3.05085C120.659 3.05085 127.28 3.05085 127.69 3.05085C127.69 3.48305 127.69 14.8983 127.69 14.8983H131.694C131.694 14.8983 131.694 3.45763 131.694 3.05085C132.104 3.05085 138.776 3.05085 138.776 3.05085V0H138.545H120.659Z" fill="#863399"/>
<path d="M142.625 0V14.8983H146.628V0H146.397H142.625Z" fill="#863399"/>
<path d="M169.904 0H166.08C166.08 0 166.08 11.339 166.08 11.7458C165.669 11.7458 156.816 11.7458 156.38 11.7458C156.38 11.3136 156.38 0 156.38 0H152.377V11.2627C152.377 14.0593 153.326 14.8983 156.406 14.8983H166.054C169.134 14.8983 170.109 14.0085 170.109 11.2627V0H169.904Z" fill="#863399"/>
<path d="M9.75098 0H12.9586L19.22 8.18644L25.4557 0H28.6633V14.8983H24.9938V6.15254L19.1943 13.4746L13.4205 6.15254V14.8983H9.75098V0Z" fill="#863399"/>
<path d="M176.088 0H179.296L185.557 8.18644L191.818 0H195V14.8983H191.331V6.15254L185.531 13.4746L179.757 6.15254V14.8983H176.088V0Z" fill="#863399"/>
</svg>
