<svg width="286" height="18" viewBox="0 0 286 18" fill="none" xmlns="http://www.w3.org/2000/svg">
    <g opacity="0.43">
        <path d="M144.845 9.64151L133.722 14.0448C132.389 14.5378 130.881 14.3668 130.318 13.144C130.185 12.8429 130.12 12.5142 130.129 12.1832C130.137 11.8521 130.218 11.5274 130.366 11.2336C130.513 10.9399 130.724 10.6849 130.981 10.488C131.238 10.2911 131.535 10.1575 131.85 10.0974L146.872 6.90918C146.903 8.58701 145.715 9.30477 144.845 9.64151Z" fill="#203C51"/>
        <path d="M128.005 7.24C127.98 7.62744 128.053 8.01492 128.216 8.3645C128.379 8.71408 128.627 9.01376 128.936 9.23421C129.593 9.74326 130.736 9.73817 131.689 9.37675L146.43 3.45087C147.36 3.07977 148.074 2.3251 148.151 1.30038C148.158 1.21333 148.16 0.951172 148.16 0.951172L129.88 5.04217C129.385 5.16019 128.938 5.43555 128.602 5.82967C128.265 6.2238 128.057 6.71694 128.005 7.24Z" fill="#203C51"/>
        <path d="M135.269 14.4394C133.201 14.8555 133.492 16.6869 134.515 17.412C135.256 17.9371 136.482 18.1565 137.892 17.8778C139.411 17.6197 140.823 16.9006 141.947 15.8115C142.815 15.008 143.423 14.1877 144.308 12.7178C144.307 12.718 137.608 13.9688 135.269 14.4394Z" fill="#203C51"/>
        <path d="M154.133 7.05855H155.868V12.3131L159.467 7.05855H161.69V14.5093H159.955V9.20412L156.326 14.5093H154.135L154.133 7.05855ZM163.296 7.05855H165.626L167.945 12.3966L170.324 7.05855H172.634V14.5093H170.899V9.53276L168.669 14.5093H167.172L165.029 9.44966V14.5093H163.294L163.296 7.05855ZM174.242 7.05855H181.311V14.5093H179.507V8.58768H176.046V14.5093H174.242V7.05855ZM183.662 7.05855H190.434V14.5093H188.629V8.58768H185.466V11.5229C185.515 12.3451 185.334 13.1644 184.946 13.8835C184.752 14.1647 184.49 14.3885 184.186 14.5325C183.883 14.6766 183.548 14.7359 183.216 14.7046C182.846 14.7126 182.476 14.6748 182.115 14.592V12.9905C182.29 13.0357 182.47 13.057 182.65 13.0539C182.81 13.076 182.972 13.0489 183.116 12.9759C183.261 12.9029 183.382 12.7873 183.463 12.6436C183.633 12.0975 183.701 11.5226 183.661 10.9501L183.662 7.05855ZM191.037 14.5093L194.448 7.05855H196.172L199.455 14.5093H197.453L196.798 12.929H193.627L192.98 14.5093H191.037ZM194.24 11.4201H196.145L195.183 9.11961L194.24 11.4201ZM201.865 7.05855V9.82854H205.325V7.05855H207.13V14.5093H205.325V11.3586H201.865V14.5093H200.06V7.05855H201.865ZM207.873 7.05855H214.616V8.58768H212.147V14.5093H210.342V8.58768H207.873V7.05855ZM214.402 14.5093V12.7253H216.207V14.5093H214.402ZM218.456 14.5093V7.05855H222.72C223.431 7.01247 224.131 7.25348 224.673 7.73086C224.91 7.9726 225.094 8.26369 225.214 8.5848C225.334 8.90591 225.386 9.24969 225.367 9.59332C225.386 9.94112 225.333 10.289 225.213 10.6144C225.093 10.9397 224.908 11.2352 224.67 11.4816C224.132 11.9673 223.431 12.2144 222.719 12.1694H220.262V14.5093H218.456ZM220.262 8.58768V10.6403H221.918C222.349 10.6697 222.782 10.5978 223.182 10.4299C223.314 10.3482 223.42 10.229 223.488 10.0865C223.556 9.9441 223.583 9.78446 223.565 9.62665C223.585 9.46983 223.564 9.31036 223.504 9.16497C223.443 9.01959 223.347 8.89364 223.223 8.80036C222.851 8.63079 222.444 8.55856 222.038 8.59002L220.262 8.58768ZM225.385 7.02804H227.368L229.628 10.9483L231.393 7.02804H233.367L230.273 13.1647C230.072 13.6068 229.773 13.993 229.4 14.2915C229.073 14.5106 228.689 14.6216 228.299 14.6098C227.932 14.6057 227.567 14.54 227.219 14.4154V13.0211C227.435 13.1234 227.666 13.1859 227.903 13.2056C228.091 13.2213 228.28 13.189 228.453 13.1117C228.602 12.9824 228.722 12.8213 228.805 12.6394L225.385 7.02804ZM237.961 7.05902H243.454V8.58815H239.766V14.5093H237.961V7.05902ZM244.634 7.05902H251.407V14.5093H249.602V8.58768H246.439V11.5229C246.487 12.3451 246.307 13.1644 245.918 13.8835C245.724 14.1647 245.462 14.3885 245.159 14.5325C244.855 14.6766 244.521 14.7359 244.188 14.7046C243.818 14.7126 243.449 14.6748 243.088 14.592V12.9905C243.263 13.0351 243.443 13.0558 243.623 13.052C243.783 13.0742 243.945 13.047 244.089 12.974C244.234 12.901 244.355 12.7854 244.436 12.6417C244.606 12.0956 244.674 11.5207 244.634 10.9483V7.05902ZM253.797 7.94166C254.677 7.18633 255.799 6.80089 256.94 6.86184C258.079 6.8005 259.199 7.18403 260.077 7.9365C260.462 8.29288 260.766 8.73304 260.968 9.22541C261.169 9.71778 261.263 10.2502 261.242 10.7844C261.263 11.3187 261.169 11.851 260.968 12.3434C260.766 12.8358 260.462 13.2759 260.077 13.6323C259.198 14.3842 258.078 14.7669 256.939 14.7046C255.799 14.7663 254.677 14.3837 253.796 13.6323C253.41 13.2768 253.104 12.837 252.902 12.3445C252.7 11.852 252.605 11.3191 252.626 10.7844C252.605 10.2503 252.699 9.71813 252.902 9.22635C253.104 8.73458 253.409 8.29558 253.796 7.94119L253.797 7.94166ZM258.636 9.02947C258.409 8.81022 258.142 8.64079 257.851 8.53144C257.559 8.4221 257.25 8.3751 256.94 8.39331C256.629 8.37575 256.318 8.42301 256.025 8.53229C255.732 8.64157 255.463 8.81064 255.234 9.02947C255.02 9.26217 254.854 9.53799 254.746 9.83986C254.639 10.1417 254.592 10.4632 254.61 10.7844C254.593 11.1052 254.639 11.4263 254.746 11.7278C254.853 12.0294 255.019 12.3049 255.234 12.5375C255.462 12.7563 255.731 12.9254 256.024 13.0347C256.317 13.1439 256.628 13.1912 256.939 13.1736C257.249 13.1915 257.56 13.1444 257.852 13.0351C258.144 12.9258 258.412 12.7565 258.64 12.5375C258.853 12.304 259.018 12.0279 259.124 11.7262C259.231 11.4244 259.277 11.1033 259.259 10.7825C259.277 10.4616 259.23 10.1404 259.123 9.83874C259.015 9.53713 258.849 9.26153 258.635 9.029L258.636 9.02947ZM262.463 7.05761H268.511V8.58674H264.268V9.82854H266.835C267.484 9.78848 268.121 10.0159 268.608 10.4609C268.825 10.6874 268.993 10.9583 269.102 11.256C269.212 11.5538 269.26 11.872 269.243 12.1901C269.26 12.5039 269.213 12.818 269.104 13.1116C268.996 13.4052 268.829 13.6718 268.614 13.8938C268.124 14.3301 267.489 14.5512 266.844 14.5098H262.462L262.463 7.05761ZM264.268 11.3577V12.9802H266.201C266.532 13.0065 266.864 12.9483 267.167 12.8107C267.266 12.7339 267.344 12.631 267.392 12.5128C267.44 12.3947 267.456 12.2654 267.44 12.1384C267.455 12.0148 267.434 11.8893 267.38 11.7778C267.327 11.6664 267.242 11.574 267.137 11.5126C266.809 11.3883 266.46 11.3359 266.111 11.3586L264.268 11.3577ZM269.462 14.5093L272.872 7.05855H274.596L277.88 14.5093H275.878L275.223 12.929H272.05L271.405 14.5093H269.462ZM272.665 11.4201H274.57L273.608 9.11961L272.665 11.4201ZM279.229 7.05855H286.001V14.5093H284.197V8.58768H281.034V11.5229C281.082 12.3451 280.901 13.1644 280.513 13.8835C280.319 14.1647 280.057 14.3885 279.754 14.5325C279.45 14.6766 279.115 14.7359 278.783 14.7046C278.413 14.7126 278.044 14.6748 277.682 14.592V12.9905C277.858 13.0351 278.037 13.0558 278.218 13.052C278.377 13.0742 278.539 13.047 278.684 12.974C278.829 12.901 278.949 12.7854 279.031 12.6417C279.201 12.0956 279.268 11.5207 279.229 10.9483V7.05855Z" fill="#203C51"/>
    </g>
    <path opacity="0.55" d="M0 6.85821H5.59122V7.76816H1.05283V13.8121H0V6.85821ZM7.78887 10.9482V13.8121H6.73604V6.85821H10.1603C10.8858 6.80706 11.6087 6.98401 12.2148 7.36108C12.4485 7.55158 12.6312 7.79075 12.7483 8.0594C12.8655 8.32804 12.9138 8.61868 12.8895 8.90799C12.9142 9.19708 12.8654 9.48754 12.7473 9.75558C12.6292 10.0236 12.4449 10.2616 12.2097 10.4501C11.5967 10.8244 10.8694 10.9994 10.1398 10.9482H7.78887ZM7.78887 7.67238V10.134H9.7412C10.2887 10.1685 10.8367 10.0747 11.3358 9.86105C11.503 9.76611 11.6385 9.62923 11.727 9.46588C11.8155 9.30254 11.8535 9.11924 11.8366 8.93673C11.8583 8.74752 11.8256 8.55633 11.7421 8.3829C11.6585 8.20946 11.5271 8.06007 11.3613 7.95015C10.8801 7.73181 10.346 7.63601 9.81275 7.67238H7.78887ZM13.4516 6.85821H14.6578L17.2234 11.6091L19.6459 6.85821H20.8521L17.7345 12.7106C17.5537 13.1074 17.271 13.4562 16.9117 13.7259C16.6196 13.9073 16.2755 14.0009 15.9253 13.9941C15.6511 13.994 15.3775 13.9716 15.1075 13.9271V13.1417C15.3242 13.1701 15.5429 13.1829 15.7617 13.18C15.9293 13.1913 16.0962 13.151 16.237 13.065C16.4133 12.9047 16.5632 12.7207 16.6817 12.5191L13.4516 6.85821ZM21.8334 6.85821H28.457V13.8121H27.4041V7.76816H22.8862V13.8121H21.8334V6.85821ZM30.3071 6.85821H36.9307V13.8121H35.8779V7.76816H31.3599V13.8121H30.3071V6.85821ZM37.9324 13.8121L41.4589 6.85821H42.5526L45.8541 13.8121H44.7604L43.82 11.8294H40.0278L39.0466 13.8121H37.9324ZM40.4674 10.9195H43.3907L41.9699 7.95973L40.4674 10.9195ZM51.476 6.85821V10.431L55.81 6.85821H57.1592L53.6328 9.7509L57.1695 13.8121H55.9327L52.9275 10.3352L51.476 11.5037V13.8121H50.4232V6.85821H51.476ZM57.5579 10.3352C57.5322 9.84412 57.6157 9.35343 57.8031 8.89422C57.9905 8.43501 58.2777 8.0173 58.6465 7.66759C59.0482 7.32549 59.5185 7.06166 60.03 6.89147C60.5416 6.72127 61.0841 6.6481 61.6261 6.67622C62.1669 6.64866 62.7081 6.72258 63.218 6.89364C63.7279 7.0647 64.1962 7.32946 64.5955 7.67238C64.9634 8.02166 65.2501 8.4386 65.4375 8.89691C65.6248 9.35522 65.7088 9.84494 65.6841 10.3352C65.7097 10.8262 65.6262 11.3169 65.4388 11.7761C65.2514 12.2353 64.9642 12.6531 64.5955 13.0028C64.1938 13.3449 63.7235 13.6087 63.2119 13.7789C62.7004 13.9491 62.1579 14.0223 61.6159 13.9941C61.0751 14.0217 60.5339 13.9478 60.024 13.7767C59.5141 13.6057 59.0457 13.3409 58.6465 12.998C58.2786 12.6487 57.9919 12.2318 57.8045 11.7734C57.6171 11.3151 57.5332 10.8254 57.5579 10.3352ZM59.4284 8.33329C59.1601 8.59967 58.9527 8.91469 58.8191 9.25896C58.6855 9.60324 58.6285 9.96949 58.6516 10.3352C58.6289 10.702 58.6865 11.0692 58.821 11.4143C58.9555 11.7594 59.164 12.0751 59.4336 12.3419C59.7289 12.5936 60.0751 12.7873 60.4517 12.9115C60.8283 13.0357 61.2276 13.0879 61.6261 13.065C62.0238 13.0882 62.4225 13.0361 62.7983 12.9119C63.1741 12.7876 63.5193 12.5938 63.8135 12.3419C64.0816 12.0743 64.2888 11.7585 64.4224 11.4135C64.5559 11.0684 64.6131 10.7016 64.5904 10.3352C64.6131 9.9684 64.5554 9.60114 64.4209 9.25603C64.2865 8.91092 64.078 8.59526 63.8084 8.3285C63.5131 8.07678 63.1669 7.8831 62.7903 7.75889C62.4137 7.63468 62.0144 7.58246 61.6159 7.60533C61.2178 7.58332 60.8191 7.63641 60.4434 7.76145C60.0676 7.8865 59.7225 8.08095 59.4284 8.33329ZM67.1253 6.85821H68.7097L71.5717 12.9118L74.5053 6.85821H76.0692V13.8121H75.0471V7.71069L72.1032 13.8121H71.0402L68.1475 7.71069V13.8121H67.1253V6.85821ZM77.9193 6.85821H84.5429V13.8121H83.4901V7.76816H78.9722V13.8121H77.9193V6.85821ZM85.5447 13.8121L89.0711 6.85821H90.1648L93.4664 13.8121H92.3727L91.4323 11.8294H87.6401L86.6588 13.8121H85.5447ZM88.0796 10.9195H91.003L89.5822 7.95973L88.0796 10.9195ZM95.521 6.85821V9.6168H100.039V6.85821H101.092V13.8121H100.039V10.5267H95.521V13.8121H94.4681V6.85821H95.521ZM102.942 6.85821H103.964V12.7873L108.635 6.85821H110.046V13.8121H109.024V7.8831L104.363 13.8121H102.942V6.85821ZM111.896 6.85821H112.918V12.7873L117.589 6.85821H119V13.8121H117.978V7.8831L113.317 13.8121H111.896V6.85821ZM113.593 5H114.288C114.315 5.42784 114.676 5.64175 115.371 5.64175C116.066 5.64175 116.428 5.42784 116.455 5H117.15C117.048 5.91314 116.455 6.36971 115.371 6.36971C114.288 6.36971 113.695 5.91314 113.593 5Z" fill="#203C51"/>
</svg>