<svg width="178" height="31" viewBox="0 0 178 31" fill="none" xmlns="http://www.w3.org/2000/svg">
<path d="M31.7909 15.7819L10.8023 23.7778C8.28539 24.6731 5.43995 24.3625 4.3787 22.1421C4.12778 21.5952 4.00538 20.9984 4.02083 20.3973C4.03628 19.7962 4.18917 19.2065 4.46786 18.673C4.74656 18.1396 5.14372 17.6765 5.62914 17.319C6.11456 16.9614 6.67545 16.7188 7.26916 16.6097L35.6146 10.8203C35.6726 13.8671 33.4322 15.1704 31.7909 15.7819Z" fill="#A5B0B9"/>
<path d="M0.0153472 11.4198C-0.0316014 12.1233 0.105713 12.827 0.413842 13.4617C0.72197 14.0965 1.19035 14.6407 1.7731 15.041C3.01299 15.9654 5.16889 15.9562 6.96702 15.2999L34.783 4.53917C36.5384 3.86529 37.8846 2.4949 38.0312 0.634122C38.0442 0.476053 38.0474 0 38.0474 0L3.55405 7.42878C2.61988 7.64309 1.77642 8.14312 1.14184 8.8588C0.50727 9.57448 0.113379 10.47 0.0153472 11.4198Z" fill="#A5B0B9"/>
<path d="M13.7236 24.4934C9.82197 25.2491 10.37 28.5746 12.3004 29.8914C13.699 30.8449 16.0126 31.2433 18.6729 30.7372C21.5405 30.2685 24.2039 28.9627 26.3257 26.9851C27.9638 25.526 29.1099 24.0363 30.7805 21.3672C30.7786 21.3676 18.1384 23.6389 13.7236 24.4934Z" fill="#A5B0B9"/>
<path d="M43.1006 11.1706H44.8755V16.3435L48.5576 11.1706H50.8314V18.5056H49.0564V13.2828L45.3442 18.5056H43.1024L43.1006 11.1706ZM52.474 11.1706H54.8578L57.2299 16.4257L59.6642 11.1706H62.0275V18.5056H60.2526V13.6064L57.9705 18.5056H56.4392L54.2476 13.5246V18.5056H52.4726L52.474 11.1706ZM63.6721 11.1706H70.904V18.5056H69.0581V12.676H65.518V18.5056H63.6721V11.1706ZM73.3082 11.1706H80.2362V18.5056H78.3902V12.676H75.1545V15.5656C75.2039 16.375 75.019 17.1816 74.6218 17.8895C74.4233 18.1663 74.1555 18.3866 73.845 18.5284C73.5345 18.6702 73.1922 18.7286 72.852 18.6979C72.4737 18.7057 72.0957 18.6685 71.7263 18.5869V17.0104C71.9051 17.0549 72.089 17.0759 72.2734 17.0728C72.4365 17.0946 72.6025 17.0678 72.7504 16.996C72.8984 16.9241 73.0217 16.8103 73.1049 16.6688C73.2793 16.1313 73.3482 15.5652 73.3077 15.0017L73.3082 11.1706ZM80.8533 18.5056L84.3424 11.1706H86.1057L89.4648 18.5056H87.4161L86.7465 16.9499H83.5029L82.8412 18.5056H80.8533ZM84.1294 15.4644H86.0783L85.0946 13.1996L84.1294 15.4644ZM91.9298 11.1706V13.8976H95.4699V11.1706H97.3158V18.5056H95.4699V15.4038H91.9298V18.5056H90.0839V11.1706H91.9298ZM98.0763 11.1706H104.974V12.676H102.448V18.5056H100.602V12.676H98.0763V11.1706ZM104.756 18.5056V16.7493H106.602V18.5056H104.756ZM108.903 18.5056V11.1706H113.265C113.992 11.1253 114.708 11.3625 115.263 11.8325C115.505 12.0705 115.693 12.357 115.816 12.6731C115.938 12.9893 115.992 13.3277 115.973 13.666C115.991 14.0084 115.938 14.3509 115.815 14.6712C115.692 14.9914 115.502 15.2823 115.259 15.5249C114.709 16.003 113.992 16.2463 113.264 16.202H110.75V18.5056H108.903ZM110.75 12.676V14.6967H112.444C112.885 14.7256 113.328 14.6548 113.737 14.4896C113.872 14.4091 113.98 14.2918 114.05 14.1515C114.119 14.0113 114.147 13.8542 114.129 13.6988C114.149 13.5444 114.128 13.3874 114.066 13.2443C114.005 13.1012 113.905 12.9772 113.779 12.8854C113.398 12.7184 112.982 12.6473 112.567 12.6783L110.75 12.676ZM115.99 11.1406H118.019L120.332 14.9999L122.137 11.1406H124.156L120.991 17.1819C120.786 17.617 120.48 17.9973 120.098 18.2911C119.763 18.5068 119.371 18.6161 118.972 18.6045C118.596 18.6004 118.223 18.5358 117.867 18.4131V17.0404C118.088 17.1412 118.325 17.2027 118.567 17.2221C118.759 17.2375 118.952 17.2058 119.129 17.1296C119.282 17.0024 119.405 16.8438 119.49 16.6647L115.99 11.1406ZM128.856 11.1711H134.476V12.6764H130.702V18.5056H128.856V11.1711ZM135.682 11.1711H142.61V18.5056H140.765V12.676H137.529V15.5656C137.578 16.375 137.393 17.1816 136.996 17.8895C136.798 18.1663 136.53 18.3866 136.219 18.5284C135.909 18.6702 135.566 18.7286 135.226 18.6979C134.848 18.7057 134.47 18.6685 134.101 18.5869V17.0104C134.28 17.0543 134.464 17.0747 134.648 17.0709C134.811 17.0927 134.977 17.066 135.125 16.9941C135.273 16.9222 135.396 16.8084 135.48 16.667C135.654 16.1294 135.723 15.5634 135.682 14.9999V11.1711ZM145.056 12.04C145.956 11.2964 147.103 10.917 148.271 10.977C149.436 10.9166 150.582 11.2942 151.48 12.0349C151.874 12.3858 152.186 12.8191 152.392 13.3038C152.598 13.7885 152.693 14.3126 152.672 14.8386C152.693 15.3645 152.598 15.8886 152.392 16.3733C152.186 16.8581 151.874 17.2914 151.48 17.6422C150.581 18.3824 149.435 18.7591 148.27 18.6979C147.104 18.7586 145.957 18.3819 145.055 17.6422C144.66 17.2923 144.347 16.8592 144.14 16.3744C143.933 15.8895 143.837 15.365 143.858 14.8386C143.837 14.3128 143.933 13.7889 144.14 13.3047C144.347 12.8206 144.659 12.3884 145.055 12.0395L145.056 12.04ZM150.006 13.1109C149.774 12.8951 149.501 12.7283 149.203 12.6206C148.905 12.513 148.588 12.4667 148.271 12.4846C147.953 12.4674 147.635 12.5139 147.335 12.6215C147.035 12.729 146.76 12.8955 146.526 13.1109C146.307 13.34 146.137 13.6115 146.027 13.9087C145.917 14.2059 145.87 14.5224 145.887 14.8386C145.87 15.1544 145.917 15.4705 146.027 15.7673C146.137 16.0642 146.306 16.3354 146.525 16.5644C146.759 16.7798 147.034 16.9463 147.334 17.0538C147.634 17.1614 147.952 17.2079 148.27 17.1907C148.588 17.2083 148.905 17.1619 149.204 17.0542C149.503 16.9466 149.777 16.78 150.01 16.5644C150.228 16.3345 150.397 16.0627 150.506 15.7657C150.615 15.4686 150.662 15.1525 150.644 14.8367C150.661 14.5207 150.614 14.2045 150.504 13.9076C150.394 13.6107 150.224 13.3394 150.005 13.1104L150.006 13.1109ZM153.921 11.1697H160.109V12.6751H155.767V13.8976H158.394C159.057 13.8581 159.709 14.082 160.207 14.5201C160.429 14.7431 160.601 15.0097 160.713 15.3029C160.825 15.596 160.874 15.9092 160.857 16.2224C160.875 16.5314 160.826 16.8405 160.715 17.1296C160.604 17.4186 160.433 17.6811 160.213 17.8997C159.712 18.3292 159.063 18.5468 158.403 18.506H153.92L153.921 11.1697ZM155.767 15.4029V17.0002H157.745C158.083 17.0261 158.423 16.9688 158.734 16.8334C158.835 16.7577 158.914 16.6565 158.963 16.5401C159.012 16.4238 159.029 16.2965 159.012 16.1715C159.028 16.0498 159.007 15.9262 158.952 15.8165C158.896 15.7068 158.81 15.6159 158.703 15.5554C158.367 15.4331 158.01 15.3814 157.653 15.4038L155.767 15.4029ZM161.081 18.5056L164.569 11.1706H166.333L169.693 18.5056H167.644L166.974 16.9499H163.729L163.069 18.5056H161.081ZM164.357 15.4644H166.306L165.323 13.1996L164.357 15.4644ZM171.072 11.1706H178V18.5056H176.154V12.676H172.919V15.5656C172.968 16.375 172.783 17.1816 172.386 17.8895C172.187 18.1663 171.92 18.3866 171.609 18.5284C171.299 18.6702 170.956 18.7286 170.616 18.6979C170.238 18.7057 169.86 18.6685 169.49 18.5869V17.0104C169.67 17.0543 169.854 17.0747 170.038 17.0709C170.201 17.0927 170.367 17.066 170.515 16.9941C170.663 16.9222 170.786 16.8084 170.87 16.667C171.044 16.1294 171.113 15.5634 171.072 14.9999V11.1706Z" fill="#A5B0B9"/>
<path d="M43.1079 24.1136H48.1844V24.9918H44.0638V30.8246H43.1079V24.1136ZM50.1798 28.0607V30.8246H49.2239V24.1136H52.3329C52.9916 24.0642 53.648 24.235 54.1983 24.5989C54.4104 24.7828 54.5763 25.0136 54.6827 25.2728C54.7891 25.5321 54.8329 25.8126 54.8108 26.0918C54.8332 26.3708 54.789 26.6511 54.6817 26.9098C54.5745 27.1684 54.4072 27.3981 54.1936 27.58C53.6371 27.9412 52.9767 28.1101 52.3143 28.0607H50.1798ZM50.1798 24.8993V27.275H51.9524C52.4494 27.3083 52.947 27.2177 53.4001 27.0115C53.552 26.9199 53.675 26.7878 53.7554 26.6302C53.8357 26.4725 53.8702 26.2957 53.8549 26.1195C53.8746 25.9369 53.8449 25.7524 53.7691 25.585C53.6932 25.4177 53.5739 25.2735 53.4233 25.1674C52.9864 24.9567 52.5015 24.8642 52.0173 24.8993H50.1798ZM55.3212 24.1136H56.4164L58.7458 28.6985L60.9453 24.1136H62.0404L59.2098 29.7616C59.0457 30.1445 58.789 30.4811 58.4627 30.7414C58.1976 30.9165 57.8852 31.0068 57.5672 31.0002C57.3183 31.0001 57.0698 30.9785 56.8247 30.9355V30.1775C57.0215 30.205 57.22 30.2174 57.4187 30.2145C57.5708 30.2255 57.7224 30.1865 57.8502 30.1036C58.0103 29.9489 58.1464 29.7713 58.2539 29.5767L55.3212 24.1136ZM62.9314 24.1136H68.9452V30.8246H67.9893V24.9918H63.8873V30.8246H62.9314V24.1136ZM70.625 24.1136H76.6389V30.8246H75.683V24.9918H71.5809V30.8246H70.625V24.1136ZM77.5484 30.8246L80.7502 24.1136H81.7432L84.7409 30.8246H83.7479L82.894 28.9111H79.4509L78.56 30.8246H77.5484ZM79.85 28.033H82.5042L81.2142 25.1766L79.85 28.033ZM89.8452 24.1136V27.5615L93.7802 24.1136H95.0053L91.8035 26.9052L95.0146 30.8246H93.8916L91.1631 27.4691L89.8452 28.5969V30.8246H88.8893V24.1136H89.8452ZM95.3672 27.4691C95.3439 26.9952 95.4198 26.5217 95.5899 26.0785C95.76 25.6353 96.0208 25.2322 96.3556 24.8947C96.7203 24.5646 97.1474 24.31 97.6118 24.1457C98.0762 23.9815 98.5688 23.9108 99.0609 23.938C99.5519 23.9114 100.043 23.9827 100.506 24.1478C100.969 24.3129 101.394 24.5684 101.757 24.8993C102.091 25.2364 102.351 25.6388 102.521 26.0811C102.692 26.5234 102.768 26.996 102.745 27.4691C102.769 27.943 102.693 28.4166 102.523 28.8597C102.353 29.3029 102.092 29.706 101.757 30.0435C101.392 30.3737 100.965 30.6283 100.501 30.7925C100.036 30.9568 99.5437 31.0274 99.0516 31.0002C98.5606 31.0268 98.0692 30.9555 97.6063 30.7904C97.1433 30.6253 96.7181 30.3698 96.3556 30.0389C96.0215 29.7018 95.7612 29.2994 95.5911 28.8571C95.421 28.4148 95.3448 27.9422 95.3672 27.4691ZM97.0656 25.5372C96.8219 25.7942 96.6337 26.0982 96.5124 26.4305C96.3911 26.7627 96.3393 27.1162 96.3603 27.4691C96.3396 27.8231 96.392 28.1775 96.5141 28.5106C96.6362 28.8436 96.8254 29.1482 97.0702 29.4057C97.3384 29.6486 97.6527 29.8355 97.9946 29.9554C98.3365 30.0753 98.6991 30.1257 99.0609 30.1036C99.422 30.126 99.784 30.0757 100.125 29.9558C100.466 29.8359 100.78 29.6488 101.047 29.4057C101.29 29.1475 101.479 28.8427 101.6 28.5097C101.721 28.1768 101.773 27.8227 101.752 27.4691C101.773 27.1151 101.721 26.7607 101.598 26.4277C101.476 26.0946 101.287 25.79 101.042 25.5325C100.774 25.2896 100.46 25.1027 100.118 24.9828C99.776 24.8629 99.4134 24.8126 99.0516 24.8346C98.6902 24.8134 98.3282 24.8646 97.9871 24.9853C97.6459 25.106 97.3326 25.2936 97.0656 25.5372ZM104.054 24.1136H105.492L108.091 29.9557L110.755 24.1136H112.174V30.8246H111.246V24.9363L108.574 30.8246H107.608L104.982 24.9363V30.8246H104.054V24.1136ZM113.854 24.1136H119.868V30.8246H118.912V24.9918H114.81V30.8246H113.854V24.1136ZM120.778 30.8246L123.979 24.1136H124.972L127.97 30.8246H126.977L126.123 28.9111H122.68L121.789 30.8246H120.778ZM123.079 28.033H125.733L124.443 25.1766L123.079 28.033ZM129.836 24.1136V26.7758H133.938V24.1136H134.894V30.8246H133.938V27.654H129.836V30.8246H128.88V24.1136H129.836ZM136.573 24.1136H137.501V29.8355L141.743 24.1136H143.023V30.8246H142.095V25.1027L137.863 30.8246H136.573V24.1136ZM144.703 24.1136H145.631V29.8355L149.872 24.1136H151.153V30.8246H150.225V25.1027L145.993 30.8246H144.703V24.1136ZM146.244 22.3203H146.875C146.9 22.7332 147.227 22.9396 147.859 22.9396C148.49 22.9396 148.818 22.7332 148.842 22.3203H149.473C149.381 23.2016 148.842 23.6422 147.859 23.6422C146.875 23.6422 146.337 23.2016 146.244 22.3203Z" fill="#A5B0B9"/>
</svg>
