<svg xmlns="http://www.w3.org/2000/svg" xmlns:xlink="http://www.w3.org/1999/xlink" width="0" height="0" style="position:absolute">
	
		<symbol id="arrow" viewBox="0 0 34.4 16">
			<path class="st0" d="M25.1 1.7c-.4-.4-.4-1 0-1.4.4-.4 1-.4 1.4 0l-1.4 1.4zM33 8l.7-.7.7.7-.7.7L33 8zm-6.5 7.7c-.4.4-1 .4-1.4 0-.4-.4-.4-1 0-1.4l1.4 1.4zM1 9c-.6 0-1-.4-1-1s.4-1 1-1v2zM26.5.3l7.2 7-1.4 1.4-7.2-7L26.5.3zm7.2 8.4l-7.2 7-1.4-1.4 7.2-7 1.4 1.4zM33 9H1V7h32v2z"></path>
		</symbol>
	
		<symbol id="attention" viewBox="0 0 16 16">
			<path d="M8 14A6 6 0 1 0 8 2a6 6 0 0 0 0 12z" stroke="#F00" stroke-linecap="round" stroke-linejoin="round"></path><path d="M8 14A6 6 0 1 0 8 2a6 6 0 0 0 0 12z" stroke="#000" stroke-opacity=".2" stroke-linecap="round" stroke-linejoin="round"></path><path d="M8 5.333V8" stroke="#F00" stroke-width="1.5" stroke-linecap="round" stroke-linejoin="round"></path><path d="M8 5.333V8" stroke="#000" stroke-opacity=".2" stroke-width="1.5" stroke-linecap="round" stroke-linejoin="round"></path><path d="M8 10.667h.007" stroke="#F00" stroke-width="1.5" stroke-linecap="round" stroke-linejoin="round"></path><path d="M8 10.667h.007" stroke="#000" stroke-opacity=".2" stroke-width="1.5" stroke-linecap="round" stroke-linejoin="round"></path>
		</symbol>
	
		<symbol id="basket" viewBox="0 0 32 32">
			<path d="M16 6.7V4M16 7.7c-.6 0-1-.4-1-1V4c0-.6.4-1 1-1s1 .4 1 1v2.7c0 .5-.4 1-1 1z"></path><path fill-rule="evenodd" clip-rule="evenodd" d="M29.3 10.7H2.7v4c1 0 1.5 0 1.9.2.3.1.5.3.7.6.3.4.4.9.6 1.8l1.4 6.3c.3 1.5.5 2.3 1 2.7.5.4 1.3.4 2.9.4h9.6c1.5 0 2.3 0 2.9-.4.5-.4.7-1.2 1-2.7l1.4-6.3c.2-1 .3-1.5.6-1.8.2-.2.4-.4.7-.6.4-.2.9-.2 1.9-.2v-4zm-17 6.5c-.1-.5-.6-.9-1.2-.8-.5.1-.9.6-.8 1.2l.7 4c.1.5.6.9 1.2.8.5-.1.9-.6.8-1.2l-.7-4zm9.4.3c.1-.5-.3-1.1-.8-1.2-.5-.1-1.1.3-1.2.8l-.7 4c-.1.5.3 1.1.8 1.2s1.1-.3 1.2-.8l.7-4z"></path>
		</symbol>
	
		<symbol id="catalog" viewBox="0 0 25 24">
			<path class="st0" d="M.8 11c0-.3.1-.5.3-.7.2-.1.4-.3.7-.3h3c.3 0 .5.1.7.3.2.2.3.4.3.7 0 .3-.1.5-.3.7-.2.2-.4.3-.7.3h-3c-.3 0-.5-.1-.7-.3-.2-.1-.3-.4-.3-.7zm0 5c0-.3.1-.5.3-.7.2-.1.4-.3.7-.3h4c.3 0 .5.1.7.3.2.2.3.4.3.7s-.1.5-.3.7c-.2.2-.4.3-.7.3h-4c-.3 0-.5-.1-.7-.3-.2-.1-.3-.4-.3-.7zm0 5c0-.3.1-.5.3-.7.2-.1.4-.3.7-.3h9c.3 0 .5.1.7.3.2.2.3.4.3.7s-.1.5-.3.7c-.2.2-.4.3-.7.3h-9c-.3 0-.5-.1-.7-.3-.2-.1-.3-.4-.3-.7zM21.4 13.1c-1.2 3.7-5.1 5.7-8.8 4.6-3.6-1.2-5.7-5.1-4.5-8.8 1.2-3.7 5.1-5.7 8.8-4.6s5.7 5.1 4.5 8.8zM21.3 16.4c-.3 0-.5.1-.7.2s-.3.4-.4.7c0 .3.1.5.2.7l1.9 2.3c.2.2.4.3.7.4.3 0 .5-.1.7-.2.2-.2.3-.4.4-.7 0-.3-.1-.5-.2-.7L22 16.8c-.2-.2-.5-.4-.7-.4z"></path>
		</symbol>
	
		<symbol id="close" viewBox="0 0 18 18">
			<path fill-rule="evenodd" clip-rule="evenodd" d="M17.4.613c-.52-.52-1.36-.52-1.88 0L9 7.12 2.48.6C1.96.08 1.12.08.6.6c-.52.52-.52 1.36 0 1.88L7.12 9 .6 15.52c-.52.52-.52 1.36 0 1.88.52.52 1.36.52 1.88 0L9 10.88l6.52 6.52c.52.52 1.36.52 1.88 0 .52-.52.52-1.36 0-1.88L10.88 9l6.52-6.52a1.336 1.336 0 0 0 0-1.867z"></path>
		</symbol>
	
		<symbol id="favourite" viewBox="0 0 32 32">
			<path class="st0" d="M5.9 18.5l9.4 8.8c.3.3.5.5.7.5.2 0 .4-.2.7-.5l9.4-8.8c2.6-2.5 2.9-6.5.7-9.3l-.4-.5c-2.6-3.4-7.9-2.8-9.7 1-.3.5-1 .5-1.3 0-1.8-3.9-7.1-4.4-9.7-1l-.5.5c-2.2 2.9-1.9 6.9.7 9.3z"></path><path class="st0" d="M16 28.8c-.6 0-1-.4-1.4-.7l-9.4-8.8c-3-2.8-3.4-7.4-.8-10.7l.4-.5c1.4-1.9 3.7-2.8 6.1-2.6 2.1.2 4 1.5 5.1 3.3 1.1-1.9 3-3.1 5.1-3.3 2.3-.3 4.6.7 6.1 2.6l.4.5c2.5 3.3 2.2 7.8-.8 10.7l-9.4 8.8c-.4.4-.8.7-1.4.7zm.3-1.9zm-.6 0zM10.1 7.5c-1.5 0-2.8.7-3.7 1.8l-.4.5c-1.9 2.4-1.6 5.9.6 8l9.4 8.8 9.4-8.8c2.2-2.1 2.5-5.5.6-8l-.4-.5c-1-1.3-2.6-2-4.3-1.8-1.7.2-3.1 1.2-3.8 2.7-.3.6-.9 1-1.6 1-.7 0-1.3-.4-1.6-1-.7-1.5-2.1-2.5-3.8-2.7h-.4z"></path>
		</symbol>
	
		<symbol id="filter" viewBox="0 0 24 24">
			<path class="st0" d="M22.5 6h-3.1c-.4-1.7-1.9-3-3.7-3S12.4 4.3 12 6H1.5v1.5h10.6c.4 1.7 1.9 3 3.7 3s3.3-1.3 3.7-3h3.1V6zm-6.7 3c-1.3 0-2.3-1-2.3-2.3s1-2.3 2.3-2.3 2.3 1 2.3 2.3S17 9 15.8 9zM1.5 18h3.1c.4 1.7 1.9 3 3.7 3s3.3-1.3 3.7-3h10.6v-1.5H11.9c-.4-1.7-1.9-3-3.7-3s-3.3 1.3-3.7 3h-3V18zm6.8-3c1.3 0 2.3 1 2.3 2.3s-1 2.3-2.3 2.3S6 18.5 6 17.3 7 15 8.3 15z"></path>
		</symbol>
	
		<symbol id="hamburger" viewBox="0 0 24 14">
			<path class="st0" d="M23 2H1c-.6 0-1-.4-1-1s.4-1 1-1h22c.6 0 1 .4 1 1s-.4 1-1 1zM23 8H1c-.6 0-1-.4-1-1s.4-1 1-1h22c.6 0 1 .4 1 1s-.4 1-1 1zM23 14H1c-.6 0-1-.4-1-1s.4-1 1-1h22c.6 0 1 .4 1 1s-.4 1-1 1z"></path>
		</symbol>
	
		<symbol id="list" viewBox="0 0 25 23">
			<path class="st0" d="M0 0h5v5H0zM10 0h15v5H10zM0 9h5v5H0zM10 9h15v5H10zM0 18h5v5H0zM10 18h15v5H10z"></path>
		</symbol>
	
		<symbol id="loupe" viewBox="0 0 32 32">
			<path d="M14.7 24c5.2 0 9.3-4.2 9.3-9.3 0-5.2-4.2-9.3-9.3-9.3-5.2 0-9.3 4.2-9.3 9.3-.1 5.1 4.1 9.3 9.3 9.3zm0-15.7c-.8 0-1.7.2-2.4.5-.8.3-1.5.8-2.1 1.4-.6.6-1.1 1.3-1.4 2.1-.3.8-.5 1.6-.5 2.4 0 .6.4 1 1 1s1-.4 1-1 .1-1.1.3-1.7c.2-.5.5-1 .9-1.4s.9-.7 1.4-.9c.5-.2 1.1-.3 1.7-.3.6 0 1-.4 1-1 .1-.6-.4-1.1-.9-1.1z" fill-rule="evenodd" clip-rule="evenodd"></path><path d="M26.7 27.7c-.3 0-.5-.1-.7-.3l-2.7-2.7c-.4-.4-.4-1 0-1.4s1-.4 1.4 0l2.7 2.7c.4.4.4 1 0 1.4-.2.2-.5.3-.7.3z"></path>
		</symbol>
	
		<symbol id="mobile" viewBox="0 0 16 20">
			<path class="st0" d="M13 20H3c-1.7 0-3-1.3-3-3V3c0-1.7 1.3-3 3-3h10c1.7 0 3 1.3 3 3v14c0 1.7-1.3 3-3 3zM3 2c-.6 0-1 .4-1 1v14c0 .6.4 1 1 1h10c.6 0 1-.4 1-1V3c0-.6-.4-1-1-1H3z"></path><path class="st0" d="M5 14h6v2H5z"></path>
		</symbol>
	
		<symbol id="phone" viewBox="0 0 22 18">
			<path class="st0" d="M21.6 15.6c-.4 1.1-2.2 2-3.6 2.3-1 .2-2.2.3-6.5-1.2-5.5-2-9-6.9-9.2-7.2C1.9 9.2 0 6.9 0 4.6s1.4-3.5 1.9-4C2.3.2 3.1 0 3.8 0h.6c.5 0 .8 0 1.2.8.4 1 1.5 3.3 1.7 3.6.1.2.3.6.1.9-.2.3-.4.4-.7.7-.2.3-.5.5-.8.8-.2.2-.5.5-.2 1s1.4 2 3 3.3c2.1 1.6 3.8 2.1 4.4 2.4.4.2 1 .1 1.3-.2.4-.4.9-1 1.5-1.7.4-.5.8-.5 1.3-.4.5.2 3.2 1.3 3.7 1.5.5.2.9.4 1 .6.2.2.2 1.2-.3 2.3z"></path>
		</symbol>
	
		<symbol id="pin" viewBox="0 0 16 17.9">
			<path class="st0" d="M8.4 16.8l.5.9-.5-.9zm-.8 0l-.5.9.5-.9zM14 8c0 2.1-1.1 3.9-2.5 5.3s-2.9 2.3-3.6 2.6l.9 1.8c.8-.4 2.5-1.4 4.1-3s3-3.8 3-6.7H14zM8 2c3.3 0 6 2.7 6 6h2c0-4.4-3.6-8-8-8v2zM2 8c0-3.3 2.7-6 6-6V0C3.6 0 0 3.6 0 8h2zm6.1 7.9c-.7-.4-2.2-1.3-3.6-2.6C3.1 11.9 2 10.1 2 8H0c0 2.9 1.5 5.1 3 6.7 1.6 1.6 3.3 2.6 4.1 3l1-1.8zm-.2 0c.1 0 .1 0 0 0H8l-.9 1.8c.5.3 1.2.3 1.7 0l-.9-1.8zM10 8c0 1.1-.9 2-2 2v2c2.2 0 4-1.8 4-4h-2zM8 6c1.1 0 2 .9 2 2h2c0-2.2-1.8-4-4-4v2zM6 8c0-1.1.9-2 2-2V4C5.8 4 4 5.8 4 8h2zm2 2c-1.1 0-2-.9-2-2H4c0 2.2 1.8 4 4 4v-2z"></path>
		</symbol>
	
		<symbol id="sort-desc" viewBox="0 0 24 14">
			<path class="st0" d="M23 2H1c-.6 0-1-.4-1-1s.4-1 1-1h22c.6 0 1 .4 1 1s-.4 1-1 1zM19 8H1c-.6 0-1-.4-1-1s.4-1 1-1h18c.6 0 1 .4 1 1s-.4 1-1 1zM15 14H1c-.6 0-1-.4-1-1s.4-1 1-1h14c.6 0 1 .4 1 1s-.4 1-1 1z"></path>
		</symbol>
	
		<symbol id="tile" viewBox="0 0 23 23">
			<path class="st0" d="M0 0h5v5H0zM9 0h5v5H9zM18 0h5v5h-5zM0 9h5v5H0zM9 9h5v5H9zM18 9h5v5h-5zM0 18h5v5H0zM9 18h5v5H9zM18 18h5v5h-5z"></path>
		</symbol>
	
		<symbol id="user" viewBox="0 0 32 32">
			<path class="st0" d="M26.5 27.1c.6-.1.9-.7.7-1.3-.8-1.6-2.1-2.9-3.8-3.9-2.2-1.2-4.8-1.9-7.4-1.9-2.6 0-5.2.7-7.3 1.9-1.7 1-3 2.4-3.8 3.9-.3.5.1 1.2.7 1.3l2.3.5c5.4 1.1 10.9 1.1 16.3 0l2.3-.5z"></path><ellipse class="st0" cx="16" cy="10.7" rx="6.7" ry="6.7"></ellipse>
		</symbol>
	
</svg>
