<svg width="45" height="21" viewBox="0 0 45 21" fill="none" xmlns="http://www.w3.org/2000/svg">
<path d="M32.827 1.71799C32.4305 1.33356 32.4207 0.700474 32.8051 0.303942C33.1895 -0.0925906 33.8226 -0.102408 34.2191 0.282015L32.827 1.71799ZM43 10.1875L43.6961 9.46951L44.4367 10.1875L43.6961 10.9055L43 10.1875ZM34.2191 20.093C33.8226 20.4774 33.1895 20.4676 32.8051 20.0711C32.4207 19.6745 32.4305 19.0414 32.827 18.657L34.2191 20.093ZM1 11.1875C0.447715 11.1875 0 10.7398 0 10.1875C0 9.63522 0.447715 9.1875 1 9.1875V11.1875ZM34.2191 0.282015L43.6961 9.46951L42.3039 10.9055L32.827 1.71799L34.2191 0.282015ZM43.6961 10.9055L34.2191 20.093L32.827 18.657L42.3039 9.46951L43.6961 10.9055ZM43 11.1875H1V9.1875H43V11.1875Z" fill="white"/>
</svg>
