<svg width="14" height="14" viewBox="0 0 14 14" fill="none" xmlns="http://www.w3.org/2000/svg">
<path d="M0.841486 7.9827C0.898769 7.992 0.956743 7.99629 1.01475 7.99554L10.8915 7.99554L10.6761 8.09571C10.4656 8.19534 10.2741 8.33095 10.1101 8.49639L7.34046 11.2661C6.97569 11.6143 6.9144 12.1744 7.19522 12.5933C7.52205 13.0397 8.14883 13.1366 8.59521 12.8097C8.63127 12.7833 8.66554 12.7545 8.69775 12.7235L13.7062 7.71506C14.0976 7.32409 14.098 6.68986 13.707 6.29845C13.7067 6.2982 13.7065 6.29792 13.7062 6.29767L8.69775 1.2892C8.30603 0.898576 7.6718 0.899451 7.28114 1.29118C7.2504 1.32201 7.2217 1.35481 7.19522 1.38937C6.9144 1.80824 6.97569 2.3684 7.34046 2.71662L10.1051 5.49131C10.2521 5.63843 10.4211 5.76179 10.606 5.85692L10.9065 5.99215L1.06987 5.99215C0.558163 5.97315 0.109217 6.3306 0.0130854 6.83357C-0.07547 7.37965 0.295407 7.89412 0.841486 7.9827Z" fill="#495086"/>
</svg>
