<svg width="10" height="10" viewBox="0 0 10 10" fill="none" xmlns="http://www.w3.org/2000/svg">
<path d="M0.601062 5.70192C0.641979 5.70856 0.683389 5.71162 0.72482 5.71109L7.77961 5.71109L7.62578 5.78264C7.47542 5.8538 7.33862 5.95066 7.22153 6.06883L5.24319 8.04718C4.98264 8.2959 4.93886 8.69602 5.13944 8.99521C5.37289 9.31403 5.82059 9.38325 6.13943 9.1498C6.16519 9.13093 6.18967 9.11036 6.21268 9.08822L9.79015 5.51075C10.0697 5.23148 10.07 4.77846 9.79071 4.49888C9.79053 4.4987 9.79033 4.4985 9.79015 4.49832L6.21268 0.920847C5.93288 0.641826 5.47986 0.642451 5.20082 0.922255C5.17886 0.944279 5.15836 0.967711 5.13944 0.992395C4.93886 1.29158 4.98264 1.6917 5.24319 1.94043L7.21795 3.92235C7.32293 4.02744 7.44362 4.11555 7.5757 4.1835L7.79035 4.2801L0.764194 4.2801C0.398689 4.26652 0.0780134 4.52184 0.00934792 4.88111C-0.0539064 5.27117 0.211006 5.63864 0.601062 5.70192Z" fill="#495086"/>
</svg>
