<svg width="12" height="12" viewBox="0 0 12 12" fill="none" xmlns="http://www.w3.org/2000/svg">
<path d="M0.721274 6.84227C0.770374 6.85023 0.820065 6.85391 0.869783 6.85327L9.33554 6.85327L9.15094 6.93913C8.9705 7.02453 8.80635 7.14076 8.66583 7.28256L6.29183 9.65658C5.97916 9.95504 5.92663 10.4352 6.16733 10.7942C6.44747 11.1768 6.98471 11.2599 7.36732 10.9797C7.39823 10.9571 7.42761 10.9324 7.45522 10.9058L11.7482 6.61286C12.0837 6.27774 12.084 5.73412 11.7489 5.39862C11.7486 5.39841 11.7484 5.39816 11.7482 5.39795L7.45522 1.10498C7.11946 0.770155 6.57583 0.770905 6.24098 1.10667C6.21463 1.1331 6.19003 1.16122 6.16733 1.19084C5.92663 1.54986 5.97916 2.03001 6.29183 2.32847L8.66154 4.70678C8.78751 4.83289 8.93235 4.93863 9.09084 5.02017L9.34842 5.13608L0.917033 5.13608C0.478426 5.11979 0.0936146 5.42618 0.0112171 5.8573C-0.0646877 6.32537 0.253206 6.76633 0.721274 6.84227Z" fill="white"/>
</svg>
