<svg width="20" height="20" viewBox="0 0 20 20" fill="none" xmlns="http://www.w3.org/2000/svg">
<g clip-path="url(#clip0)">
<path d="M19.998 10.0051C19.998 11.9788 19.4122 13.8982 18.3039 15.5559C17.6921 16.395 16.4639 15.5706 17.0051 14.6876C20.775 9.18234 16.6599 1.51262 9.99891 1.56844C5.34706 1.5684 1.56235 5.35311 1.56235 10.0051C1.50642 16.5022 8.84227 20.6344 14.3634 17.2268C14.7324 17.0033 15.2127 17.1212 15.4362 17.4902C15.6598 17.8592 15.5418 18.3396 15.1728 18.5631C11.3572 20.9355 6.06258 20.309 2.92862 17.0754C-3.34123 10.7928 1.12435 0.0144475 9.99911 0.00608896C15.3733 -0.10476 20.1094 4.63033 19.998 10.0051ZM9.99903 12.3486C10.4305 12.3486 10.7802 11.9989 10.7802 11.5674V10.7862H14.3345C15.371 10.745 15.3702 9.2648 14.3345 9.2239H10.7802V3.75568C10.739 2.71922 9.25875 2.72 9.21785 3.75568V9.2239H8.43668C7.40022 9.26515 7.401 10.7454 8.43668 10.7862H9.21785V11.5674C9.21785 11.9989 9.56758 12.3486 9.99903 12.3486Z" fill="#141736" fill-opacity="0.4"/>
</g>
<defs>
<clipPath id="clip0">
<rect width="20" height="20" fill="white"/>
</clipPath>
</defs>
</svg>
