<svg width="14" height="16" viewBox="0 0 14 16" fill="none" xmlns="http://www.w3.org/2000/svg">
<path d="M7.76484 15.9551C10.9744 15.5956 13.5467 13.0299 13.9127 9.8203C14.3932 5.62365 11.1313 2.05127 7.04252 2.00552V0.122909C7.04252 0.0183201 6.91178 -0.037243 6.82354 0.0281253L2.94719 2.87491C2.88182 2.92394 2.88182 3.01873 2.94719 3.06775L6.82354 5.91454C6.91178 5.97991 7.04252 5.92108 7.04252 5.81976V3.94042C9.91546 3.98618 12.2164 6.43095 12.0203 9.35291C11.8536 11.8663 9.80434 13.9058 7.29092 14.066C4.62716 14.2359 2.36214 12.3337 1.95686 9.81703C1.88168 9.34964 1.47313 9.00973 1.00248 9.00973C0.417432 9.00973 -0.0401469 9.52941 0.0513688 10.1079C0.620074 13.6934 3.93098 16.3833 7.76484 15.9551Z" fill="#92969D"/>
</svg>
